<?xml version="1.0" encoding="UTF-8"?>
<svg version="1.1" xmlns="http://www.w3.org/2000/svg" width="1167" height="504">
<path d="M0 0 C1.05832031 0.37382813 2.11664062 0.74765625 3.20703125 1.1328125 C26.63193169 10.21409611 44.62301523 27.23618254 55.14355469 49.95849609 C65.06245331 73.60211932 64.80081184 100.37471551 55.8125 124.1875 C45.28923601 147.56897712 26.12083124 165.63485059 2.1875 174.8125 C-21.87950944 182.77209195 -48.01549282 182.14332678 -71 171 C-94.00325412 158.8246487 -110.29382185 140.02635938 -118.375 115.25 C-125.69890888 88.77374532 -122.28169234 63.09210961 -108.9453125 39.1328125 C-105.75760537 33.9991958 -102.03732897 29.48363234 -98 25 C-97.32453125 24.23042969 -96.6490625 23.46085937 -95.953125 22.66796875 C-72.35835857 -2.65648921 -32.43712563 -11.52817705 0 0 Z M-73 39 C-73.47790137 41.05920564 -73.47790137 41.05920564 -73.43579102 43.47119141 C-73.45493057 44.40041412 -73.47407013 45.32963684 -73.49378967 46.28701782 C-73.49712814 47.29831757 -73.50046661 48.30961731 -73.50390625 49.3515625 C-73.51389145 50.39839203 -73.52387665 51.44522156 -73.53416443 52.52377319 C-73.54938932 54.75148564 -73.55638888 56.97926683 -73.5559082 59.20703125 C-73.5623818 62.56371232 -73.6165704 65.91729223 -73.67382812 69.2734375 C-73.77120786 81.30903401 -72.99618514 91.22420076 -67.84408569 102.1552124 C-66.67051851 104.72009675 -65.68269785 107.34391948 -64.68647766 109.98171997 C-63.69711526 112.599819 -62.66831345 115.20164174 -61.64013672 117.8046875 C-61.12224502 119.12139492 -60.60869338 120.43981626 -60.09912109 121.75976562 C-59.34427519 123.71370826 -58.57602183 125.66189214 -57.8046875 127.609375 C-57.36108887 128.74342773 -56.91749023 129.87748047 -56.46044922 131.04589844 C-54.87052961 134.26188427 -53.98770907 135.99428832 -51 138 C-47.76629333 138.57242019 -44.58518797 138.53652048 -41.30859375 138.49609375 C-40.36693863 138.49754898 -39.42528351 138.49900421 -38.45509338 138.50050354 C-36.46718243 138.49884545 -34.47925852 138.48729419 -32.49145508 138.46655273 C-29.4449225 138.43757061 -26.40012705 138.44595101 -23.35351562 138.45898438 C-21.42186653 138.45274773 -19.49022293 138.44435736 -17.55859375 138.43359375 C-16.64605331 138.43652939 -15.73351288 138.43946503 -14.7933197 138.44248962 C-13.52168724 138.42346336 -13.52168724 138.42346336 -12.22436523 138.40405273 C-11.47920151 138.39864975 -10.73403778 138.39324677 -9.96629333 138.38768005 C-7.4420351 137.88999003 -6.59195096 136.98553184 -5 135 C-4.02460182 133.00942395 -3.13212887 130.97751343 -2.29296875 128.92578125 C-1.79128174 127.70761719 -1.28959473 126.48945313 -0.77270508 125.234375 C-0.24388319 123.92725325 0.28451119 122.61995848 0.8125 121.3125 C1.35293293 119.98814305 1.89370502 118.66392444 2.43481445 117.33984375 C10.64617102 99.40402165 10.64617102 99.40402165 14.12939453 80.33325195 C14.13412277 78.99210075 14.13412277 78.99210075 14.13894653 77.62385559 C14.1369223 76.67161606 14.13489807 75.71937653 14.1328125 74.73828125 C14.13424759 73.25777534 14.13424759 73.25777534 14.13571167 71.74736023 C14.1363907 69.66710343 14.13455574 67.58684449 14.13037109 65.5065918 C14.12500184 62.31359138 14.13033423 59.12073053 14.13671875 55.92773438 C14.13605826 53.90624969 14.13477769 51.88476509 14.1328125 49.86328125 C14.13584885 48.42581291 14.13584885 48.42581291 14.13894653 46.95930481 C14.13579437 46.07466049 14.13264221 45.19001617 14.12939453 44.27856445 C14.12859894 43.49866653 14.12780334 42.71876862 14.12698364 41.91523743 C14.11841171 39.91427203 14.11841171 39.91427203 13 38 C8.13725189 36.37908396 3.15510494 36.73219811 -1.9375 36.6875 C-3.03513672 36.65849609 -4.13277344 36.62949219 -5.26367188 36.59960938 C-6.32005859 36.59123047 -7.37644531 36.58285156 -8.46484375 36.57421875 C-9.430271 36.55963623 -10.39569824 36.54505371 -11.39038086 36.5300293 C-14.0716175 36.84861804 -14.0716175 36.84861804 -16.32324219 38.43310547 C-18.87775779 42.34373112 -18.4687993 45.92637013 -18.36328125 50.49609375 C-18.36314649 52.43815115 -18.36382636 54.38020873 -18.36523438 56.32226562 C-18.34463581 59.35170837 -18.31342561 62.3803049 -18.2644043 65.40942383 C-18.0688347 79.87797488 -19.95818377 91.74755989 -25.36833191 105.21913147 C-26.11143031 106.99922732 -26.11143031 106.99922732 -26 109 C-28.31 109 -30.62 109 -33 109 C-33.27658447 107.82526123 -33.55316895 106.65052246 -33.83813477 105.44018555 C-34.81984392 101.49512406 -36.18301531 97.77229587 -37.58984375 93.95703125 C-41.11552572 83.42754962 -40.64264998 72.66980833 -40.5625 61.6875 C-40.54588279 58.61572426 -40.53677542 55.54488907 -40.55223083 52.47309875 C-40.5614935 50.57887975 -40.55240414 48.68445819 -40.52259827 46.79045105 C-40.43490956 41.98262537 -40.43490956 41.98262537 -42.66748047 37.92431641 C-45.50984462 36.79796193 -47.69412631 36.62766397 -50.75390625 36.63671875 C-52.40616211 36.63768555 -52.40616211 36.63768555 -54.09179688 36.63867188 C-55.80979492 36.6628418 -55.80979492 36.6628418 -57.5625 36.6875 C-58.71169922 36.68427734 -59.86089844 36.68105469 -61.04492188 36.67773438 C-67.38635697 36.49931033 -67.38635697 36.49931033 -73 39 Z " fill="#F26D21" transform="translate(609,76)"/>
<path d="M0 0 C10.23 0 20.46 0 31 0 C31.33 16.17 31.66 32.34 32 49 C33.65 47.02 35.3 45.04 37 43 C46.81508705 34.81060024 58.77729188 34.10474569 71 35 C81.46351029 36.6719324 89.47619838 42.52930884 96.2109375 50.51171875 C106.78065053 65.21238949 107.51294224 85.28310016 104.72265625 102.59765625 C101.9398922 115.69921024 95.92596385 126.0571118 85 134 C74.41582056 139.8687918 61.37401238 140.95620312 49.625 138 C42.88130183 135.58988107 35.97862515 130.96793772 32 125 C31.67 128.3 31.34 131.6 31 135 C20.77 135 10.54 135 0 135 C0 90.45 0 45.9 0 0 Z M39.125 64.375 C32.36691158 72.72322687 31.28280327 81.45568213 32 92 C32.80687982 99.03462833 35.06760017 105.60695675 40.56640625 110.3515625 C46.18738184 113.97715697 52.20873086 114.47309646 58.6875 113.375 C65.61677013 110.49869919 68.42642058 107.02022411 71.23828125 100.28125 C74.52102294 90.4498595 74.00757291 79.51798567 70 70 C67.39023598 64.96688368 64.261204 62.0830073 59 60 C51.43234532 58.1691158 45.19979115 59.35669427 39.125 64.375 Z " fill="#F26D21" transform="translate(559,304)"/>
<path d="M0 0 C7.44057441 6.06223849 11.40061252 12.80709275 12.6953125 22.31640625 C12.78075143 24.87896708 12.82220227 27.41265182 12.80883789 29.97412109 C12.80898392 30.71626862 12.80912994 31.45841614 12.8092804 32.22305298 C12.80858789 34.65784708 12.80082669 37.09256314 12.79296875 39.52734375 C12.79110222 41.22270669 12.78967942 42.91807017 12.78868103 44.61343384 C12.78487439 49.06200669 12.77506001 53.51054657 12.76397705 57.95910645 C12.75372301 62.50398309 12.74917487 67.0488651 12.74414062 71.59375 C12.733436 80.50131885 12.71585429 89.40885464 12.6953125 98.31640625 C2.1353125 98.31640625 -8.4246875 98.31640625 -19.3046875 98.31640625 C-19.7996875 94.35640625 -19.7996875 94.35640625 -20.3046875 90.31640625 C-20.94792969 90.85910156 -21.59117187 91.40179688 -22.25390625 91.9609375 C-31.78294918 99.50532955 -42.15233616 102.61778927 -54.3046875 101.31640625 C-64.62771824 99.88229309 -74.48058147 96.43563055 -81.3046875 88.12890625 C-86.19212331 80.09059607 -86.97429229 71.42848504 -85.14453125 62.35546875 C-82.43051498 52.53451685 -77.0609696 47.40218377 -68.3046875 42.31640625 C-57.05623426 37.0355856 -45.97664748 37.17815309 -33.8046875 37.25390625 C-32.39583492 37.25893092 -30.98698061 37.26349212 -29.578125 37.26757812 C-26.15360112 37.27930595 -22.72916703 37.29571934 -19.3046875 37.31640625 C-19.34783081 35.66257935 -19.34783081 35.66257935 -19.3918457 33.9753418 C-19.44472109 31.94845178 -19.49406972 29.92129509 -19.51245117 27.89379883 C-19.694787 24.02504016 -20.23933871 22.39522468 -22.73046875 19.390625 C-28.05456273 15.10064942 -33.68941579 15.87377858 -40.3046875 16.31640625 C-44.22816363 17.60168291 -45.68027176 18.47667474 -48.1171875 21.75390625 C-49.47945691 24.48323668 -49.47945691 24.48323668 -50.3046875 28.31640625 C-60.5346875 28.31640625 -70.7646875 28.31640625 -81.3046875 28.31640625 C-80.18330675 15.98121798 -78.55524085 10.61513328 -69.9140625 2.42578125 C-51.80095916 -12.2165478 -19.0547548 -13.91965986 0 0 Z M-50.3046875 62.31640625 C-52.65354519 65.19565117 -53.3046875 66.59113558 -53.3046875 70.31640625 C-52.06007704 74.05023762 -50.27247196 75.78293171 -47.3046875 78.31640625 C-42.37465049 80.78142475 -35.58506376 80.01588893 -30.46484375 78.4453125 C-25.09490584 75.98240865 -20.43439042 73.03930026 -18.3046875 67.31640625 C-17.93391767 63.93498542 -17.99830651 60.70021404 -18.3046875 57.31640625 C-28.84267695 56.04011948 -41.89956694 54.57484784 -50.3046875 62.31640625 Z " fill="#F26D21" transform="translate(428.3046875,340.68359375)"/>
<path d="M0 0 C0.83523193 0.00491455 1.67046387 0.0098291 2.53100586 0.01489258 C8.95761933 0.13650244 14.68364023 0.89927922 20.6875 3.3125 C21.53441406 3.6528125 22.38132812 3.993125 23.25390625 4.34375 C35.11521055 9.70397301 42.50349108 18.48646935 48.0078125 30.09765625 C52.26835698 41.40448584 50.6875 50.38471803 50.6875 63.3125 C27.9175 63.3125 5.1475 63.3125 -18.3125 63.3125 C-16.38071312 72.97143438 -15.10101336 76.86031595 -7.625 82.25 C-1.59809517 84.18315815 4.31287558 84.28779217 10.1875 81.875 C11.0125 81.359375 11.8375 80.84375 12.6875 80.3125 C13.6775 79.9825 14.6675 79.6525 15.6875 79.3125 C16.6775 77.3325 16.6775 77.3325 17.6875 75.3125 C27.9175 75.3125 38.1475 75.3125 48.6875 75.3125 C47.0461263 85.1607422 41.63783176 93.22690532 33.6875 99.3125 C19.4207293 107.85234976 5.57315511 110.54988081 -11 107.1875 C-25.8236613 103.26358966 -36.70050763 95.24019301 -44.83984375 82.28125 C-49.06931907 73.75498676 -49.81638233 66.03161073 -49.75854492 56.56591797 C-49.75004175 54.44790054 -49.77886165 52.33259581 -49.81054688 50.21484375 C-49.87973047 36.86104176 -46.24501069 24.96302072 -37.125 14.8984375 C-26.6235988 4.83459469 -14.4387608 -0.10084771 0 0 Z M-15.89453125 31.375 C-18.89947856 35.48093352 -18.3125 37.89258296 -18.3125 43.3125 C-5.7725 43.3125 6.7675 43.3125 19.6875 43.3125 C18.72353443 34.63680984 18.32960306 31.67444129 12.25 26.0625 C1.52852723 18.7405186 -7.93484987 22.09749058 -15.89453125 31.375 Z " fill="#F26D21" transform="translate(235.3125,333.6875)"/>
<path d="M0 0 C10.14328145 8.10176521 16.55431591 19.1163317 18.46484375 31.96875 C19.79982736 49.24623278 19.59204932 65.85476819 8.46484375 79.96875 C7.74296875 81 7.02109375 82.03125 6.27734375 83.09375 C-0.91179891 91.36241249 -12.86934176 96.36053331 -23.53515625 97.96875 C-40.87873021 99.05913742 -55.8323383 96.9703367 -69.78515625 85.78125 C-80.3916991 75.87021815 -85.07509678 62.20310555 -85.65625 48.01171875 C-86.0069152 30.62285034 -82.0516649 16.10845916 -69.953125 3.29296875 C-51.8571864 -13.74627271 -19.80866427 -13.72935321 0 0 Z M-48.53515625 21.96875 C-55.00874569 32.91064191 -55.23993203 46.30589482 -52.81640625 58.62109375 C-50.65365629 64.97853214 -47.56615384 68.61130743 -42.28515625 72.71875 C-36.85112995 75.18876195 -31.60966115 75.54285589 -25.84765625 73.96875 C-20.32342257 71.83811188 -17.09060034 68.18333445 -14.5390625 62.91015625 C-10.31655298 52.22256039 -9.71400289 38.89705561 -13.62109375 28.015625 C-16.35557075 21.89226625 -19.96105537 17.90069642 -25.84765625 14.71875 C-34.87340053 12.19993764 -42.57220221 14.71650859 -48.53515625 21.96875 Z " fill="#F26D21" transform="translate(758.53515625,343.03125)"/>
<path d="M0 0 C4.46382799 4.31311997 7.24707547 8.6974803 8.5 14.8125 C8.52085752 17.14574011 8.52285131 19.47927857 8.5 21.8125 C4.42512506 21.93616555 0.35097699 22.02686476 -3.7253418 22.0871582 C-5.11160304 22.11229219 -6.49773187 22.14640592 -7.88354492 22.18969727 C-9.87621037 22.25038396 -11.86984533 22.27604879 -13.86328125 22.30078125 C-15.06251221 22.32696533 -16.26174316 22.35314941 -17.49731445 22.38012695 C-20.5 21.8125 -20.5 21.8125 -22.41479492 19.40698242 C-23.5 16.8125 -23.5 16.8125 -23.5 14.8125 C-28.84109315 11.88672636 -35.03885215 10.23305522 -41.11328125 11.25 C-44.99800016 12.47073 -47.84718396 13.62588562 -50.5 16.8125 C-51.16685938 19.26922892 -51.16685938 19.26922892 -50.5 21.8125 C-46.44010472 25.9042376 -42.29996602 26.97548978 -36.875 28.25 C-36.04685791 28.45753906 -35.21871582 28.66507812 -34.36547852 28.87890625 C-31.74638197 29.53510099 -29.12379055 30.17535611 -26.5 30.8125 C1.86455072 37.7279352 1.86455072 37.7279352 9.6875 47.5625 C14.20864621 55.66938286 14.53087201 64.52951464 12.3125 73.44921875 C9.06188771 82.90412469 3.5125587 88.75512242 -5.2578125 93.21484375 C-22.4110906 100.94053689 -42.66229385 100.8714059 -60.3125 94.625 C-69.33477174 90.86663589 -76.26669435 85.77714726 -80.5 76.8125 C-82.58100097 71.26316408 -82.5 68.09357409 -82.5 61.8125 C-72.93 61.8125 -63.36 61.8125 -53.5 61.8125 C-52.51 64.7825 -51.52 67.7525 -50.5 70.8125 C-42.96955423 76.28918783 -35.56607008 76.46570753 -26.5 75.8125 C-22.93891533 74.48463792 -21.14486434 73.45736434 -18.5 70.8125 C-17.91630557 67.39711856 -17.91630557 67.39711856 -18.5 63.8125 C-22.21933532 60.00656523 -26.16928201 58.79687593 -31.22265625 57.6640625 C-32.33464638 57.39425064 -32.33464638 57.39425064 -33.46910095 57.11898804 C-36.61335887 56.35611485 -39.76428968 55.6229955 -42.91577148 54.890625 C-67.70205326 49.07870506 -67.70205326 49.07870506 -76.1953125 38.9375 C-80.88305323 31.30237737 -80.75599788 21.43064619 -78.84765625 12.89453125 C-75.5813108 3.85250199 -69.17009404 -3.07896895 -60.5 -7.1875 C-41.3324913 -14.49377525 -16.17877662 -13.40730244 0 0 Z " fill="#F26D21" transform="translate(534.5,344.1875)"/>
<path d="M0 0 C0.97775391 -0.020625 1.95550781 -0.04125 2.96289062 -0.0625 C14.99820577 -0.12613683 26.3804544 3.29102494 36.125 10.5 C41.23151932 15.72527558 43.93542353 20.70686333 44.44921875 28.0546875 C44.55882935 29.52010986 44.55882935 29.52010986 44.6706543 31.01513672 C44.71746338 31.7526416 44.76427246 32.49014648 44.8125 33.25 C40.77462805 33.44847749 36.7386578 33.59323514 32.69702148 33.68945312 C31.3241225 33.72957083 29.95156302 33.78408586 28.57983398 33.85351562 C17.10487441 34.41956369 17.10487441 34.41956369 13.88305664 31.50390625 C12.5859375 29.34375 12.5859375 29.34375 11.69677734 27.17773438 C10.85042849 24.86781809 10.85042849 24.86781809 7.625 23.25 C1.5239295 21.64971921 -3.76070838 21.29661758 -9.6875 23.625 C-12.23134762 25.15551148 -12.23134762 25.15551148 -14.1875 27.25 C-14.85471536 30.16440699 -14.85471536 30.16440699 -14.1875 33.25 C-9.85593623 36.78032065 -5.51277775 38.22387252 -0.1484375 39.3984375 C1.41798767 39.76814903 2.98439328 40.13794339 4.55078125 40.5078125 C6.98485731 41.0669328 9.41999281 41.62104118 11.85595703 42.171875 C39.19015496 48.40569737 39.19015496 48.40569737 46.8125 60.25 C50.50086273 67.37751175 49.81005037 77.57883599 48.16015625 85.3046875 C45.1169672 93.68978352 39.96052472 99.393796 32.125 103.5625 C15.50981262 111.06283674 -4.77560334 112.04667414 -22.1875 106.25 C-32.06141953 102.42206743 -40.257006 97.23496052 -44.6875 87.3125 C-46.69880568 82.25822754 -46.1875 79.31039898 -46.1875 73.25 C-36.9475 73.25 -27.7075 73.25 -18.1875 73.25 C-17.1975 76.22 -16.2075 79.19 -15.1875 82.25 C-7.03225879 86.32762061 1.81273662 88.58386404 10.8125 86.25 C14.40445612 84.77496007 14.40445612 84.77496007 16.8125 82.25 C17.83873781 79.17128657 18.00793532 77.22717659 17.375 74.0625 C11.89255942 67.70286892 -1.82435849 66.83031029 -9.5703125 65.03125 C-33.678303 59.22650608 -33.678303 59.22650608 -40.4609375 49.40625 C-45.31188434 40.73647267 -44.69078969 31.62481988 -42.1875 22.25 C-39.11345136 14.25499447 -33.83389683 8.60677947 -26.21484375 4.7421875 C-17.33130577 0.88935194 -9.59270797 0.04960676 0 0 Z " fill="#F26D21" transform="translate(944.1875,332.75)"/>
<path d="M0 0 C0.88623047 -0.01611328 1.77246094 -0.03222656 2.68554688 -0.04882812 C12.34938657 -0.05587688 20.2517795 2.78220566 28.6875 7.3125 C28.6875 8.3025 28.6875 9.2925 28.6875 10.3125 C14.71668118 18.28162994 14.71668118 18.28162994 5.6875 16.3125 C-6.11745709 15.42188933 -15.75301485 18.28785233 -25.3125 25.3125 C-33.15321914 32.31252934 -36.90427978 41.82159973 -38.15625 52.078125 C-38.58737535 61.00241975 -36.04799632 68.78067202 -31.3125 76.3125 C-29.74673389 78.04150474 -29.74673389 78.04150474 -28.3125 79.3125 C-24.20047437 75.29659965 -20.1425164 71.22997246 -16.25 67 C-15.66089844 66.36449219 -15.07179688 65.72898437 -14.46484375 65.07421875 C-14.08457031 64.49285156 -13.70429687 63.91148437 -13.3125 63.3125 C-14.38320127 60.1003962 -14.903249 59.58084536 -17.47265625 57.61328125 C-18.10107422 57.12666016 -18.72949219 56.64003906 -19.37695312 56.13867188 C-20.03630859 55.63916016 -20.69566406 55.13964844 -21.375 54.625 C-22.03822266 54.11388672 -22.70144531 53.60277344 -23.38476562 53.07617188 C-25.0225831 51.81540591 -26.66693137 50.56313216 -28.3125 49.3125 C-27.00691755 45.39575266 -25.71575323 45.20126073 -22.08203125 43.37890625 C-20.98068848 42.81888916 -19.8793457 42.25887207 -18.74462891 41.68188477 C-18.15530579 41.38774689 -17.56598267 41.09360901 -16.95880127 40.79055786 C-13.84146785 39.23417377 -10.74033628 37.6460065 -7.63671875 36.0625 C-7.00918701 35.74346207 -6.38165527 35.42442413 -5.73510742 35.09571838 C-0.24146488 32.29625597 5.16816203 29.36004752 10.5625 26.375 C18.80274994 21.83854766 27.10528534 17.43049197 35.45220947 13.09420776 C36.76978374 12.40949609 38.08664559 11.7234117 39.402771 11.03591919 C41.24027021 10.07691999 43.08056476 9.12353205 44.921875 8.171875 C45.98631836 7.61983398 47.05076172 7.06779297 48.14746094 6.49902344 C50.6875 5.3125 50.6875 5.3125 52.6875 5.3125 C51.3296116 9.3861652 48.78920054 10.87060689 45.5 13.49609375 C43.48551946 15.51491584 42.76458503 16.46035393 42.6875 19.3125 C43.94223409 21.31874486 43.94223409 21.31874486 45.8125 23.25 C55.48085624 34.91003762 56.8452992 49.75325389 55.6875 64.3125 C52.81857815 79.77189032 44.60336463 91.77394046 32.2109375 101.1953125 C22.45327595 107.52031135 12.47922052 109.6549884 1 109.75 C0.13334717 109.76015137 -0.73330566 109.77030273 -1.6262207 109.78076172 C-10.93460615 109.65534273 -19.28947191 106.98044362 -27.3125 102.3125 C-27.6425 101.3225 -27.9725 100.3325 -28.3125 99.3125 C-17.45547712 91.38244881 -17.45547712 91.38244881 -12.6796875 91.2265625 C-11.07390525 91.62403335 -9.4804184 92.07412695 -7.90234375 92.5703125 C2.2852505 95.48983423 12.14045928 92.90147809 21.16015625 87.95703125 C31.21305179 81.69704788 36.58708703 73.24255767 39.30859375 61.671875 C41.20924457 49.83689464 37.20046093 40.02924754 30.6875 30.3125 C27.67838776 31.6613982 25.58833637 33.16415713 23.26953125 35.5 C22.65529297 36.11617188 22.04105469 36.73234375 21.40820312 37.3671875 C20.77849609 38.00914062 20.14878906 38.65109375 19.5 39.3125 C18.85869141 39.95445312 18.21738281 40.59640625 17.55664062 41.2578125 C14.21689678 44.48455342 14.21689678 44.48455342 11.6875 48.3125 C12.2762793 48.59029297 12.86505859 48.86808594 13.47167969 49.15429688 C16.93905371 50.96668365 19.87048549 53.40003127 22.9375 55.8125 C23.5871875 56.31136719 24.236875 56.81023437 24.90625 57.32421875 C26.53986564 58.60434193 28.11884241 59.95355599 29.6875 61.3125 C29.6875 61.9725 29.6875 62.6325 29.6875 63.3125 C28.95563477 63.68834229 28.22376953 64.06418457 27.46972656 64.45141602 C13.62809872 71.56692489 -0.17589758 78.73839683 -13.875 86.125 C-22.14031406 90.57497573 -30.42496681 94.97160169 -38.8125 99.1875 C-39.62533447 99.59846924 -40.43816895 100.00943848 -41.27563477 100.43286133 C-42.01998779 100.80306396 -42.76434082 101.1732666 -43.53125 101.5546875 C-44.16998047 101.8729248 -44.80871094 102.19116211 -45.46679688 102.51904297 C-47.3924807 103.34688324 -49.26874965 103.86040794 -51.3125 104.3125 C-50.39802154 103.22731889 -49.48079593 102.14445262 -48.5625 101.0625 C-48.01980469 100.42183594 -47.47710938 99.78117187 -46.91796875 99.12109375 C-45.3125 97.3125 -45.3125 97.3125 -42.875 95.125 C-42.359375 94.526875 -41.84375 93.92875 -41.3125 93.3125 C-41.70766438 89.67698768 -43.58934817 87.20975929 -45.625 84.25 C-53.67362297 71.90437093 -55.9245949 58.59716429 -53.8515625 44.0859375 C-50.5842575 29.51760108 -42.73679303 17.25678731 -30.48046875 8.62109375 C-20.75810285 2.75263866 -11.2998586 -0.04055944 0 0 Z " fill="#F26D21" transform="translate(836.3125,329.6875)"/>
<path d="M0 0 C11.22 0 22.44 0 34 0 C38.80323613 14.11412464 43.15321483 28.3274546 47.375 42.625 C48.02185773 44.80737399 48.66899152 46.98966618 49.31640625 49.171875 C50.88077762 54.44698089 52.44177766 59.72307466 54 65 C56.66310207 58.18274964 58.8374964 51.25510479 60.9765625 44.2578125 C61.34727875 43.05309296 61.717995 41.84837341 62.09994507 40.60714722 C63.07773292 37.42905967 64.05361212 34.25040122 65.02825928 31.0713501 C66.40738074 26.57316002 67.7881258 22.07547359 69.17147827 17.57858276 C69.90663283 15.18859272 70.64009941 12.79808269 71.37173462 10.40701294 C71.7023288 9.33184418 72.03292297 8.25667542 72.37353516 7.14892578 C72.6642691 6.20042755 72.95500305 5.25192932 73.25454712 4.27468872 C74 2 74 2 75 0 C85.89 0 96.78 0 108 0 C100.84755444 22.2933368 93.51231962 44.513051 86 66.6875 C85.58390472 67.91863525 85.16780945 69.14977051 84.73910522 70.41821289 C83.53752501 73.97128254 82.33194509 77.52296838 81.125 81.07421875 C80.76807571 82.13025803 80.41115143 83.1862973 80.04341125 84.27433777 C79.70166367 85.27652847 79.35991608 86.27871918 79.0078125 87.3112793 C78.71535645 88.17230759 78.42290039 89.03333588 78.12158203 89.92045593 C76.5192752 94.31993306 74.73891707 98.65270733 73 103 C60.46 103 47.92 103 35 103 C33.34677734 98.22208984 33.34677734 98.22208984 31.66015625 93.34765625 C30.9269399 91.22899722 30.19370642 89.11034411 29.46044922 86.99169922 C27.85094352 82.34114077 26.24197479 77.69039698 24.63330078 73.03955078 C20.44172254 60.92415014 16.24078956 48.81212499 12.01953125 36.70703125 C10.84846687 33.3452589 9.67761008 29.98341432 8.50680542 26.62155151 C7.75216139 24.45687667 6.99640322 22.29258991 6.23953247 20.12869263 C5.1856212 17.115379 4.13540016 14.10080278 3.0859375 11.0859375 C2.77118973 10.18941971 2.45644196 9.29290192 2.13215637 8.36921692 C1.70781563 7.1469062 1.70781563 7.1469062 1.27490234 5.89990234 C1.02719086 5.19070648 0.77947937 4.48151062 0.52426147 3.75082397 C0 2 0 2 0 0 Z " fill="#F26D21" transform="translate(77,335)"/>
<path d="M0 0 C10.56 0 21.12 0 32 0 C32 10.56 32 21.12 32 32 C38.27 32 44.54 32 51 32 C51 39.26 51 46.52 51 54 C44.73 54 38.46 54 32 54 C32.09341945 61.35089585 32.19948807 68.70145782 32.31738281 76.05200195 C32.35571119 78.55357841 32.39055718 81.05521072 32.421875 83.55688477 C32.46744146 87.14880357 32.52545024 90.74033662 32.5859375 94.33203125 C32.59748871 95.45398392 32.60903992 96.57593658 32.62094116 97.73188782 C32.64081085 98.77274033 32.66068054 99.81359283 32.68115234 100.88598633 C32.69447601 101.80309891 32.70779968 102.72021149 32.7215271 103.66511536 C32.85377574 106.27061139 32.85377574 106.27061139 35 109 C37.48498201 109.58609525 37.48498201 109.58609525 40.3125 109.6875 C41.25738281 109.75324219 42.20226563 109.81898438 43.17578125 109.88671875 C45.7881831 109.99150389 48.38598554 110.00796537 51 110 C51.02886984 113.97915159 51.04675406 117.95827653 51.0625 121.9375 C51.07087891 123.07380859 51.07925781 124.21011719 51.08789062 125.38085938 C51.09111328 126.46044922 51.09433594 127.54003906 51.09765625 128.65234375 C51.10289307 129.65257568 51.10812988 130.65280762 51.11352539 131.68334961 C51 134 51 134 50 135 C17.04685556 137.3147164 17.04685556 137.3147164 6.3125 128.625 C-0.7063913 121.57661756 -0.1138973 112.60297851 -0.11329651 103.21144104 C-0.10813522 101.95701706 -0.10297394 100.70259308 -0.09765625 99.41015625 C-0.0962413 98.11049423 -0.09482635 96.81083221 -0.09336853 95.4717865 C-0.08957334 92.03756747 -0.07976908 88.60339158 -0.06866455 85.16918945 C-0.05838555 81.65641869 -0.05385708 78.14364088 -0.04882812 74.63085938 C-0.03814376 67.75388688 -0.02057167 60.87694996 0 54 C-4.95 54 -9.9 54 -15 54 C-15 46.74 -15 39.48 -15 32 C-10.05 32 -5.1 32 0 32 C0 21.44 0 10.88 0 0 Z " fill="#F26D21" transform="translate(1011,304)"/>
<path d="M0 0 C10.89 0 21.78 0 33 0 C33 44.55 33 89.1 33 135 C22.11 135 11.22 135 0 135 C0 90.45 0 45.9 0 0 Z " fill="#F26D21" transform="translate(298,304)"/>
</svg>
